<?xml version="1.0" encoding="UTF-8"?>
<svg id="Capa_1" xmlns="http://www.w3.org/2000/svg" version="1.1" viewBox="0 0 500 500">
  <!-- Generator: Adobe Illustrator 29.1.0, SVG Export Plug-In . SVG Version: 2.1.0 Build 142)  -->
  <defs>
    <style>
      .st0 {
        fill: #fff;
      }

      .st1 {
        opacity: .8;
      }

      .st2 {
        fill: #8e86b8;
      }

      .st3 {
        fill: #372f7b;
      }
    </style>
  </defs>
  <g>
    <path class="st2" d="M429.53,263.51c-.05-1.35.03-2.72.04-4.06,0-.73-.02-1.43.09-2.08-.12-.24-.08-.54-.08-.81-.01-3.03-.02-6.05-.02-9.08,0-.21-.02-.43.02-.63.02-.95.03-1.91.03-2.87-.09-.23,0-.52-.02-.76-.37-5.14-.87-10.27-1.73-15.36-4.47-26.54-15.66-49.91-33.42-70.08-19.78-22.46-44.36-36.74-73.71-42.74-1.84-.38-3.67-.95-5.62-.77,5.45,1.99,10.73,4.29,15.89,6.91,14.88,7.55,26.27,18.5,32.88,33.99,5.96,13.95,7.06,28.46,4.08,43.24-4.29,21.31-15.91,37.33-35.17,47.62-11.07,5.91-22.99,8.5-35.47,8.85-8.56.24-17.09.67-25.42,2.97-33.63,9.32-55.17,44.29-48.61,79.02,3.45,18.23,12.83,32.76,27.76,43.67,6.5,4.75,13.47,8.81,21.39,10.65,16.08,3.73,32.26,4.07,48.47.66,23.78-5,44.54-15.89,62.39-32.3,26.35-24.24,41.23-54.36,45.66-89.78.23-1.84.2-3.71.54-5.53-.02-.24,0-.47.04-.71ZM295.19,348.47c-12.2-.03-22.27-10.04-22.22-22.11.05-12.25,9.94-22.11,22.17-22.11,12.3,0,22.36,10.13,22.29,22.43-.07,12.12-9.97,21.82-22.25,21.79Z"/>
    <path class="st2" d="M266.7,115.04c-3.49,1.24-6.89,2.41-10.26,3.66-26.74,9.97-48.28,26.58-64.06,50.44-10.83,16.38-18,34.27-21.67,53.56-3.05,15.98-4.05,32.08-2.59,48.3,2.04,22.74,9.19,43.84,20.99,63.33,16.78,27.71,40.42,46.87,71.43,56.71,10.33,3.28,20.94,5.02,31.72,5.86.61.05,1.28-.1,1.83.33,0,.5-.37.37-.6.37-18.28.7-36.31-.84-53.88-6.22-10.47-3.2-20.33-7.77-29.5-13.78-.54-.35-1.09-.71-1.56-1.14-12.05-10.96-23.31-22.59-31.27-37.02-10.48-18.97-17.62-39.08-20.18-60.63-3.54-29.73-.16-58.65,11.84-86.21,12.51-28.74,32.27-51,60.41-65.39,11.28-5.77,23.24-9.63,35.6-12.29.54-.12,1.1-.31,1.77.11Z"/>
    <path class="st2" d="M214.05,389.56c-13.91-1.73-27.71-1.72-41.54-.46,16.09.89,31.81,3.74,47.42,8.57-3.91,3.93-8.15,7.01-12.84,9.46-12.59,6.58-26.02,8.35-39.94,6.53-16.89-2.21-31.88-9.02-45.27-19.48-1.07-.83-1.22-1.28-.19-2.33,12.33-12.4,26.55-21.52,43.93-24.96,12.48-2.48,24.4-1.02,35.18,6.25,5.77,3.89,9.88,9.26,12.95,15.45.12.25.16.53.29.98Z"/>
    <path class="st2" d="M154.16,296.36c-11.91-7.44-24.15-13.71-37.04-18.67,13.45,7.92,25.82,17.29,37.97,27.44-2.66,1.18-5.27,1.89-7.91,2.48-19.12,4.26-35.67-1.3-50.32-13.52-11.8-9.84-20.2-22.21-26.15-36.3-.34-.81-.82-1.56.64-1.9,14.87-3.46,29.84-4.94,44.95-1.76,9.36,1.97,18.05,5.53,25.12,12.21,6.97,6.58,10.58,14.9,12.03,24.26.28,1.84.46,3.69.71,5.77Z"/>
    <path class="st2" d="M138.48,172.03c7.11,11.1,13.62,22.53,18.76,34.7.83,1.96.83,1.97-1.17,1.77-17.03-1.76-29.5-10.35-37.85-25.19-6.08-10.8-8.93-22.45-9.56-34.74-.2-3.93-.07-7.85.24-11.77.06-.75.1-1.35,1.21-1.12,15.73,3.39,30.27,9.35,42.01,20.65,11.63,11.18,14.79,24.96,11.04,40.47-.39,1.62-.76,3.26-1.56,4.94-1.85-2.7-3.6-5.31-5.41-7.86-3.49-4.91-7-9.78-11.01-14.32-2.22-2.52-4.15-5.32-6.48-7.78-.14-.32-.35-.37-.64-.19.14.15.28.29.42.44Z"/>
    <path class="st2" d="M174.73,251.44c7.96-10.32,16.96-19.27,26.74-27.49-9.82,5.54-18.65,12.46-27.44,19.87-.67-5.61-.19-10.85,1.44-15.97,3.45-10.79,10.91-17.95,20.85-22.76,11.92-5.77,24.62-7.17,37.67-6.38,2.16.13,4.31.4,6.47.56.85.06,1.11.36.86,1.22-5.79,19.43-16.09,35.59-33.92,46.08-10.05,5.91-22.36,7.57-32.67,4.88Z"/>
    <path class="st2" d="M273.25,183.31c.05-12.27,9.84-22.01,22.06-21.94,12.06.07,21.69,9.91,21.66,22.14-.03,12.01-9.87,21.78-21.88,21.73-12.18-.05-21.89-9.79-21.84-21.93Z"/>
    <path class="st2" d="M185.85,151.81c1.13-10.72,1.91-21.23,2.02-31.79-2.27,11.9-4.27,23.85-6.91,36-3.8-3.98-6.17-8.37-7.83-13.15-3.73-10.75-2.28-21.27,1.75-31.58,3.83-9.79,9.9-18.01,17.88-24.85,1.13-.97,1.69-1.2,2.49.39,6.93,13.73,9.84,28.03,6.02,43.22-2.25,8.94-7.59,15.85-14.76,21.46-.13.1-.3.14-.68.31Z"/>
  </g>
  <g class="st1">
    <path class="st0" d="M824.13,711.87c-.01-.28,0-.57,0-.85,0-.15,0-.3.02-.43-.02-.05-.02-.11-.02-.17,0-.63,0-1.26,0-1.89,0-.04,0-.09,0-.13,0-.2,0-.4,0-.6-.02-.05,0-.11,0-.16-.08-1.07-.18-2.14-.36-3.2-.93-5.54-3.27-10.41-6.97-14.61-4.12-4.68-9.25-7.66-15.37-8.91-.38-.08-.77-.2-1.17-.16,1.14.41,2.24.9,3.31,1.44,3.1,1.57,5.48,3.86,6.86,7.09,1.24,2.91,1.47,5.93.85,9.02-.89,4.44-3.32,7.79-7.33,9.93-2.31,1.23-4.8,1.77-7.4,1.85-1.78.05-3.56.14-5.3.62-7.01,1.94-11.51,9.24-10.14,16.48.72,3.8,2.68,6.83,5.79,9.11,1.35.99,2.81,1.84,4.46,2.22,3.35.78,6.73.85,10.11.14,4.96-1.04,9.29-3.31,13.01-6.74,5.5-5.06,8.6-11.34,9.52-18.72.05-.38.04-.77.11-1.15,0-.05,0-.1,0-.15ZM796.12,729.59c-2.54,0-4.64-2.09-4.63-4.61.01-2.55,2.07-4.61,4.62-4.61,2.56,0,4.66,2.11,4.65,4.68-.01,2.53-2.08,4.55-4.64,4.54Z"/>
    <path class="st0" d="M790.18,680.91c-.73.26-1.44.5-2.14.76-5.58,2.08-10.07,5.54-13.36,10.52-2.26,3.41-3.75,7.15-4.52,11.17-.64,3.33-.84,6.69-.54,10.07.42,4.74,1.92,9.14,4.38,13.21,3.5,5.78,8.43,9.77,14.9,11.83,2.15.68,4.37,1.05,6.61,1.22.13,0,.27-.02.38.07,0,.1-.08.08-.13.08-3.81.15-7.57-.18-11.24-1.3-2.18-.67-4.24-1.62-6.15-2.87-.11-.07-.23-.15-.33-.24-2.51-2.29-4.86-4.71-6.52-7.72-2.18-3.96-3.67-8.15-4.21-12.64-.74-6.2-.03-12.23,2.47-17.98,2.61-5.99,6.73-10.64,12.6-13.64,2.35-1.2,4.85-2.01,7.42-2.56.11-.02.23-.06.37.02Z"/>
    <path class="st0" d="M779.2,738.15c-2.9-.36-5.78-.36-8.66-.1,3.35.19,6.63.78,9.89,1.79-.82.82-1.7,1.46-2.68,1.97-2.63,1.37-5.43,1.74-8.33,1.36-3.52-.46-6.65-1.88-9.44-4.06-.22-.17-.26-.27-.04-.49,2.57-2.59,5.54-4.49,9.16-5.21,2.6-.52,5.09-.21,7.34,1.3,1.2.81,2.06,1.93,2.7,3.22.03.05.03.11.06.2Z"/>
    <path class="st0" d="M766.71,718.72c-2.48-1.55-5.04-2.86-7.72-3.89,2.8,1.65,5.38,3.61,7.92,5.72-.55.25-1.1.39-1.65.52-3.99.89-7.44-.27-10.49-2.82-2.46-2.05-4.21-4.63-5.45-7.57-.07-.17-.17-.32.13-.4,3.1-.72,6.22-1.03,9.37-.37,1.95.41,3.76,1.15,5.24,2.55,1.45,1.37,2.21,3.11,2.51,5.06.06.38.1.77.15,1.2Z"/>
    <path class="st0" d="M763.44,692.79c1.48,2.31,2.84,4.7,3.91,7.24.17.41.17.41-.24.37-3.55-.37-6.15-2.16-7.89-5.25-1.27-2.25-1.86-4.68-1.99-7.24-.04-.82-.01-1.64.05-2.45.01-.16.02-.28.25-.23,3.28.71,6.31,1.95,8.76,4.31,2.42,2.33,3.08,5.21,2.3,8.44-.08.34-.16.68-.33,1.03-.39-.56-.75-1.11-1.13-1.64-.73-1.02-1.46-2.04-2.29-2.99-.46-.52-.86-1.11-1.35-1.62-.03-.07-.07-.08-.13-.04.03.03.06.06.09.09Z"/>
    <path class="st0" d="M771,709.35c1.66-2.15,3.54-4.02,5.58-5.73-2.05,1.16-3.89,2.6-5.72,4.14-.14-1.17-.04-2.26.3-3.33.72-2.25,2.27-3.74,4.35-4.75,2.49-1.2,5.13-1.5,7.85-1.33.45.03.9.08,1.35.12.18.01.23.08.18.25-1.21,4.05-3.36,7.42-7.07,9.61-2.1,1.23-4.66,1.58-6.81,1.02Z"/>
    <path class="st0" d="M791.55,695.14c.01-2.56,2.05-4.59,4.6-4.58,2.51.01,4.52,2.07,4.52,4.62,0,2.5-2.06,4.54-4.56,4.53-2.54,0-4.56-2.04-4.55-4.57Z"/>
    <path class="st0" d="M773.32,688.58c.24-2.23.4-4.43.42-6.63-.47,2.48-.89,4.97-1.44,7.51-.79-.83-1.29-1.75-1.63-2.74-.78-2.24-.48-4.44.36-6.59.8-2.04,2.07-3.76,3.73-5.18.24-.2.35-.25.52.08,1.45,2.86,2.05,5.85,1.26,9.01-.47,1.86-1.58,3.31-3.08,4.48-.03.02-.06.03-.14.06Z"/>
  </g>
  <g>
    <g>
      <path class="st3" d="M-30.74,759.84H-14.2c2.29,0,4.29.34,5.99,1.02,1.7.68,3.09,1.55,4.17,2.61,1.08,1.06,1.89,2.22,2.41,3.5.53,1.28.79,2.53.79,3.76,0,1.41-.31,2.74-.92,3.99-.62,1.25-1.44,2.36-2.48,3.3-1.03.95-2.23,1.72-3.6,2.31-1.36.59-2.82.89-4.36.89v.26c.97.04,2.24.2,3.83.46,1.58.26,3.12.79,4.62,1.58,1.5.79,2.79,1.94,3.9,3.43,1.1,1.5,1.65,3.5,1.65,6.01,0,1.58-.28,3.16-.83,4.72-.55,1.56-1.45,2.96-2.68,4.19-1.24,1.23-2.87,2.23-4.9,3-2.03.77-4.53,1.16-7.49,1.16h-16.64v-46.21ZM-16.81,780.04c1.32,0,2.56-.22,3.73-.66,1.17-.44,2.2-1.06,3.1-1.85.9-.79,1.61-1.74,2.11-2.84.51-1.1.76-2.29.76-3.57,0-1.01-.18-2.02-.53-3.04-.35-1.01-.91-1.91-1.68-2.71-.77-.79-1.76-1.43-2.97-1.91-1.21-.48-2.67-.73-4.39-.73h-8.05v17.29h7.92ZM-15.12,803.14c1.41,0,2.75-.21,4.01-.63s2.35-1.04,3.28-1.88c.93-.83,1.67-1.85,2.22-3.04.55-1.19.83-2.55.83-4.09,0-1.41-.25-2.75-.76-4.03-.51-1.28-1.28-2.4-2.32-3.37-1.04-.97-2.35-1.74-3.94-2.31-1.59-.57-3.47-.86-5.63-.86h-7.29v20.2h9.6Z"/>
      <path class="st3" d="M15.87,773.04v5.28h.4c.79-1.98,1.8-3.48,3.04-4.49,1.23-1.01,2.77-1.52,4.62-1.52.22,0,.56.03,1.02.1.46.07.97.2,1.52.4.55.2,1.1.47,1.65.83.55.35,1.02.79,1.42,1.32l-2.24,4.09c-.4-.57-1.02-1.19-1.88-1.85-.86-.66-1.79-.99-2.81-.99-.75,0-1.52.18-2.31.53-.79.35-1.52.92-2.18,1.72-.66.79-1.2,1.81-1.62,3.07-.42,1.25-.63,2.78-.63,4.59v19.94h-5.61v-33.01h5.61Z"/>
      <path class="st3" d="M41.09,773.04v21.78c0,.44.04,1.13.13,2.08.09.95.38,1.9.89,2.87.51.97,1.28,1.82,2.31,2.54,1.03.73,2.48,1.09,4.32,1.09,1.14,0,2.24-.2,3.3-.59,1.06-.4,1.98-1,2.77-1.82.79-.81,1.43-1.84,1.91-3.07.48-1.23.73-2.71.73-4.42v-20.46h5.61v33.01h-5.61v-4.16h-.26l-1.06,1.06c-1.54,1.54-3.07,2.59-4.59,3.14-1.52.55-2.92.8-4.19.76-2.9,0-5.16-.5-6.77-1.49-1.61-.99-2.78-2.16-3.53-3.5-.75-1.34-1.2-2.71-1.35-4.09-.15-1.39-.23-2.48-.23-3.27v-21.45h5.61Z"/>
      <path class="st3" d="M95.81,806.05v-21.72c0-.44-.04-1.14-.13-2.11-.09-.97-.36-1.94-.83-2.91-.46-.97-1.2-1.82-2.21-2.54-1.01-.73-2.44-1.09-4.29-1.09-1.15,0-2.26.2-3.33.59-1.08.4-2.04,1.01-2.87,1.85-.84.84-1.5,1.87-1.98,3.1-.48,1.23-.73,2.71-.73,4.42v20.4h-5.61v-33.01h5.61v4.22h.26l1.06-1.06c1.54-1.54,3.1-2.58,4.69-3.14,1.58-.55,3.01-.8,4.29-.76,2.9,0,5.15.5,6.73,1.49,1.58.99,2.74,2.16,3.47,3.5.73,1.34,1.15,2.71,1.29,4.09.13,1.39.2,2.47.2,3.27v21.39h-5.61Z"/>
      <path class="st3" d="M144.39,789.61c0,2.29-.4,4.48-1.19,6.57-.79,2.09-1.93,3.93-3.4,5.51-1.48,1.58-3.26,2.84-5.35,3.76-2.09.92-4.43,1.39-7.03,1.39s-5.03-.47-7.16-1.42c-2.14-.95-3.94-2.21-5.41-3.8-1.48-1.58-2.62-3.42-3.43-5.51-.81-2.09-1.22-4.26-1.22-6.5s.41-4.48,1.22-6.57c.81-2.09,1.96-3.93,3.43-5.51,1.47-1.58,3.28-2.85,5.41-3.8,2.13-.95,4.52-1.42,7.16-1.42s4.94.47,7.03,1.42c2.09.95,3.87,2.21,5.35,3.8,1.47,1.58,2.61,3.42,3.4,5.51.79,2.09,1.19,4.28,1.19,6.57ZM138.12,789.61c0-3.08-.33-5.58-.99-7.49-.66-1.91-1.52-3.4-2.57-4.46-1.06-1.06-2.22-1.77-3.5-2.15-1.28-.37-2.51-.56-3.7-.56s-2.42.19-3.7.56c-1.28.38-2.45,1.09-3.53,2.15-1.08,1.06-1.96,2.54-2.64,4.46-.68,1.91-1.02,4.41-1.02,7.49s.34,5.51,1.02,7.43c.68,1.91,1.56,3.4,2.64,4.46,1.08,1.06,2.25,1.77,3.53,2.15,1.28.37,2.51.56,3.7.56s2.42-.19,3.7-.56c1.28-.37,2.44-1.09,3.5-2.15,1.06-1.06,1.91-2.54,2.57-4.46s.99-4.39.99-7.43Z"/>
      <path class="st3" d="M197.67,806.05h-5.61v-2.71c-1.67.88-3.79,1.68-6.35,2.41-2.56.73-5.49,1.09-8.79,1.09-4.41,0-8.2-.69-11.37-2.08-3.17-1.39-5.79-3.23-7.84-5.54-2.05-2.31-3.57-4.93-4.56-7.86-.99-2.93-1.49-5.95-1.49-9.08,0-3.65.64-6.92,1.91-9.8,1.28-2.88,3.06-5.31,5.35-7.29,2.29-1.98,5.01-3.5,8.15-4.56,3.15-1.06,6.59-1.58,10.33-1.58,3.26,0,6.08.36,8.48,1.09,2.4.73,4.41,1.62,6.04,2.67,1.63,1.06,2.92,2.19,3.86,3.4.95,1.21,1.62,2.3,2.01,3.27h-4.75c-.26-.92-.85-1.84-1.75-2.74-.9-.9-2.06-1.71-3.47-2.41-1.41-.7-3.01-1.28-4.82-1.72-1.8-.44-3.74-.66-5.81-.66-3.13,0-5.87.51-8.22,1.52-2.35,1.01-4.35,2.44-5.97,4.29s-2.85,4.05-3.66,6.6c-.82,2.55-1.22,5.35-1.22,8.38s.43,5.91,1.29,8.48c.86,2.57,2.15,4.8,3.87,6.67,1.72,1.87,3.88,3.33,6.48,4.39,2.6,1.06,5.64,1.58,9.13,1.58,2.65,0,5-.31,7.08-.92,2.07-.62,4.1-1.56,6.09-2.84v-11.95h-7.39v-2.71h13v20.6Z"/>
      <path class="st3" d="M212.52,773.04v5.28h.4c.79-1.98,1.8-3.48,3.04-4.49,1.23-1.01,2.77-1.52,4.62-1.52.22,0,.56.03,1.02.1.46.07.97.2,1.52.4.55.2,1.1.47,1.65.83.55.35,1.02.79,1.42,1.32l-2.24,4.09c-.4-.57-1.02-1.19-1.88-1.85s-1.79-.99-2.81-.99c-.75,0-1.52.18-2.31.53-.79.35-1.52.92-2.18,1.72-.66.79-1.2,1.81-1.62,3.07-.42,1.25-.63,2.78-.63,4.59v19.94h-5.61v-33.01h5.61Z"/>
      <path class="st3" d="M244.26,772.32c3.21,0,5.7.45,7.46,1.35,1.76.9,3.05,2.08,3.87,3.53.82,1.45,1.29,3.12,1.42,5.02.13,1.89.2,3.83.2,5.81v18.02h-5.35v-3.23c-1.28,1.23-2.9,2.21-4.88,2.94-1.98.73-3.96,1.09-5.94,1.09s-3.56-.33-5.02-.99c-1.45-.66-2.66-1.52-3.63-2.57-.97-1.06-1.69-2.24-2.18-3.56-.48-1.32-.73-2.66-.73-4.03s.26-2.82.79-4.22c.53-1.41,1.32-2.67,2.38-3.8,1.06-1.12,2.35-2.04,3.89-2.74,1.54-.7,3.3-1.06,5.28-1.06s3.86.39,5.64,1.16c1.78.77,3.25,1.86,4.39,3.27v-2.84c0-3.61-.54-6.29-1.62-8.05-1.08-1.76-3.06-2.64-5.93-2.64-1.24,0-2.32.16-3.25.46-.93.31-1.76.74-2.49,1.29-.73.55-1.4,1.23-2.02,2.05-.62.81-1.24,1.73-1.85,2.74l-3.39-3.43c.62-.66,1.27-1.32,1.95-1.98.68-.66,1.52-1.25,2.51-1.78.99-.53,2.17-.96,3.54-1.29s3.02-.5,4.96-.5ZM251.86,792.98c-.22-.53-.54-1.14-.96-1.85-.42-.7-.96-1.39-1.62-2.05-.66-.66-1.46-1.22-2.39-1.68-.93-.46-2.03-.69-3.31-.69s-2.45.25-3.51.76c-1.06.51-1.96,1.17-2.68,1.98-.73.82-1.29,1.77-1.69,2.87-.4,1.1-.6,2.24-.6,3.43,0,1.41.25,2.63.76,3.66.51,1.03,1.16,1.91,1.96,2.64.79.73,1.68,1.27,2.65,1.62s1.9.53,2.78.53,1.69-.15,2.55-.46c.86-.31,1.68-.74,2.45-1.29.77-.55,1.47-1.2,2.09-1.95.62-.75,1.13-1.56,1.52-2.44v-5.08Z"/>
      <path class="st3" d="M264.47,775.68v-2.64h5.74v-10.17h5.61v10.17h7.99v2.64h-7.99v21.92c0,.53.02,1.13.07,1.82s.18,1.32.4,1.91c.22.59.56,1.09,1.02,1.49.46.4,1.11.59,1.95.59,1.06,0,1.94-.4,2.64-1.19.7-.79,1.28-1.65,1.72-2.57l3.1,3.17c-2.16,2.16-4.6,3.23-7.33,3.23-1.15,0-2.27-.2-3.37-.59-1.1-.4-2.08-1-2.94-1.82-.86-.81-1.55-1.86-2.08-3.14-.53-1.28-.79-2.77-.79-4.49v-20.33h-5.74Z"/>
      <path class="st3" d="M289.22,775.68v-2.64h5.74v-10.17h5.61v10.17h7.99v2.64h-7.99v21.92c0,.53.02,1.13.07,1.82s.18,1.32.4,1.91c.22.59.56,1.09,1.02,1.49.46.4,1.11.59,1.95.59,1.06,0,1.94-.4,2.64-1.19.7-.79,1.28-1.65,1.72-2.57l3.1,3.17c-2.16,2.16-4.6,3.23-7.33,3.23-1.15,0-2.27-.2-3.37-.59-1.1-.4-2.08-1-2.94-1.82-.86-.81-1.55-1.86-2.08-3.14s-.79-2.77-.79-4.49v-20.33h-5.74Z"/>
      <path class="st3" d="M349.49,789.61c0,2.29-.4,4.48-1.19,6.57-.79,2.09-1.93,3.93-3.4,5.51-1.47,1.58-3.26,2.84-5.35,3.76-2.09.92-4.43,1.39-7.03,1.39s-5.03-.47-7.16-1.42c-2.13-.95-3.94-2.21-5.41-3.8-1.47-1.58-2.62-3.42-3.43-5.51-.81-2.09-1.22-4.26-1.22-6.5s.41-4.48,1.22-6.57c.81-2.09,1.96-3.93,3.43-5.51,1.47-1.58,3.28-2.85,5.41-3.8,2.13-.95,4.52-1.42,7.16-1.42s4.94.47,7.03,1.42c2.09.95,3.87,2.21,5.35,3.8,1.47,1.58,2.61,3.42,3.4,5.51s1.19,4.28,1.19,6.57ZM343.22,789.61c0-3.08-.33-5.58-.99-7.49-.66-1.91-1.52-3.4-2.57-4.46s-2.22-1.77-3.5-2.15c-1.28-.37-2.51-.56-3.7-.56s-2.42.19-3.7.56c-1.28.38-2.45,1.09-3.53,2.15-1.08,1.06-1.96,2.54-2.64,4.46-.68,1.91-1.02,4.41-1.02,7.49s.34,5.51,1.02,7.43c.68,1.91,1.56,3.4,2.64,4.46,1.08,1.06,2.25,1.77,3.53,2.15,1.28.37,2.51.56,3.7.56s2.42-.19,3.7-.56c1.28-.37,2.44-1.09,3.5-2.15s1.91-2.54,2.57-4.46c.66-1.91.99-4.39.99-7.43Z"/>
      <path class="st3" d="M380.05,806.05v-21.72c0-.44-.04-1.14-.13-2.11-.09-.97-.36-1.94-.83-2.91-.46-.97-1.2-1.82-2.21-2.54-1.01-.73-2.44-1.09-4.29-1.09-1.14,0-2.26.2-3.33.59-1.08.4-2.04,1.01-2.87,1.85-.84.84-1.5,1.87-1.98,3.1-.48,1.23-.73,2.71-.73,4.42v20.4h-5.61v-33.01h5.61v4.22h.26l1.06-1.06c1.54-1.54,3.1-2.58,4.69-3.14,1.58-.55,3.01-.8,4.29-.76,2.9,0,5.15.5,6.73,1.49,1.58.99,2.74,2.16,3.47,3.5.73,1.34,1.16,2.71,1.29,4.09.13,1.39.2,2.47.2,3.27v21.39h-5.61Z"/>
      <path class="st3" d="M398.8,760.1c.7-.7,1.54-1.06,2.51-1.06s1.8.35,2.51,1.06c.7.7,1.06,1.54,1.06,2.51s-.35,1.81-1.06,2.51c-.71.7-1.54,1.06-2.51,1.06s-1.8-.35-2.51-1.06c-.7-.7-1.06-1.54-1.06-2.51s.35-1.8,1.06-2.51ZM404.22,773.04v33.01h-5.61v-33.01h5.61Z"/>
    </g>
    <g>
      <path class="st3" d="M32.66,840.76v-15.17h1.32l6.93,11.83h-.69l6.87-11.83h1.32v15.17h-1.54v-12.76h.37l-6.33,10.83h-.76l-6.37-10.83h.41v12.76h-1.54Z"/>
      <path class="st3" d="M58.95,840.86c-1.19,0-2.23-.25-3.12-.75-.9-.5-1.6-1.18-2.1-2.06-.51-.87-.76-1.87-.76-3s.24-2.12.73-2.99c.48-.87,1.15-1.55,1.99-2.05.85-.5,1.79-.75,2.85-.75s2.02.24,2.85.73c.83.48,1.48,1.16,1.96,2.04.48.87.72,1.88.72,3.02,0,.07,0,.15-.01.23,0,.08-.01.16-.01.25h-9.9v-1.15h9.08l-.61.46c0-.82-.18-1.56-.53-2.2-.35-.64-.83-1.14-1.44-1.51-.61-.36-1.31-.54-2.1-.54s-1.48.18-2.1.54c-.62.36-1.1.87-1.45,1.52-.35.65-.52,1.39-.52,2.23v.24c0,.87.19,1.63.57,2.29.38.66.92,1.17,1.6,1.54s1.47.55,2.35.55c.69,0,1.34-.12,1.94-.37s1.12-.62,1.55-1.13l.87,1c-.51.61-1.14,1.07-1.9,1.39s-1.59.48-2.5.48Z"/>
      <path class="st3" d="M72.81,840.86c-1.08,0-2.06-.25-2.91-.74-.86-.49-1.54-1.17-2.03-2.05s-.74-1.88-.74-3.02.25-2.17.74-3.03c.49-.87,1.17-1.54,2.03-2.03.86-.48,1.83-.73,2.91-.73,1,0,1.89.22,2.68.67.79.45,1.42,1.1,1.89,1.96.47.86.7,1.91.7,3.15s-.23,2.28-.69,3.14c-.46.87-1.09,1.53-1.87,1.98-.79.46-1.69.68-2.7.68ZM72.92,839.5c.81,0,1.53-.18,2.18-.55.64-.37,1.15-.89,1.52-1.56.37-.67.55-1.45.55-2.33s-.18-1.67-.55-2.34c-.37-.66-.87-1.18-1.52-1.55-.64-.37-1.37-.55-2.18-.55s-1.51.18-2.15.55c-.64.37-1.14.89-1.52,1.55-.38.67-.56,1.44-.56,2.34s.19,1.66.56,2.33c.38.67.88,1.19,1.52,1.56.64.37,1.35.55,2.15.55ZM77.21,840.76v-3.42l.15-2.3-.22-2.3v-8.06h1.54v16.08h-1.47Z"/>
      <path class="st3" d="M84.84,826.87c-.32,0-.58-.11-.8-.33s-.33-.48-.33-.78.11-.56.33-.77c.22-.21.48-.31.8-.31s.58.1.8.3.33.45.33.76-.1.58-.31.8-.48.33-.81.33ZM84.06,840.76v-11.38h1.54v11.38h-1.54Z"/>
      <path class="st3" d="M95.7,840.86c-1.13,0-2.13-.25-3.02-.75-.89-.5-1.59-1.18-2.09-2.06-.51-.87-.76-1.87-.76-3s.25-2.14.76-3.01c.51-.87,1.2-1.55,2.09-2.04.89-.49,1.9-.74,3.02-.74.97,0,1.84.19,2.62.56.78.38,1.39.94,1.84,1.69l-1.15.78c-.39-.58-.87-1-1.45-1.28-.58-.27-1.21-.41-1.89-.41-.81,0-1.54.18-2.19.55-.65.37-1.16.89-1.54,1.55-.38.67-.56,1.44-.56,2.34s.19,1.68.56,2.34c.38.66.89,1.18,1.54,1.55.65.37,1.38.55,2.19.55.68,0,1.31-.14,1.89-.41.58-.27,1.06-.69,1.45-1.26l1.15.78c-.45.74-1.06,1.3-1.84,1.68-.78.38-1.65.57-2.62.57Z"/>
      <path class="st3" d="M104.86,826.87c-.32,0-.58-.11-.8-.33s-.33-.48-.33-.78.11-.56.33-.77c.22-.21.48-.31.8-.31s.58.1.8.3.33.45.33.76-.1.58-.31.8-.48.33-.81.33ZM104.08,840.76v-11.38h1.54v11.38h-1.54Z"/>
      <path class="st3" d="M116.8,829.27c.92,0,1.74.18,2.44.53.7.35,1.25.89,1.65,1.61.4.72.6,1.63.6,2.73v6.61h-1.54v-6.46c0-1.2-.3-2.11-.9-2.72-.6-.61-1.44-.92-2.52-.92-.81,0-1.51.16-2.11.49-.6.33-1.06.79-1.39,1.41-.33.61-.49,1.35-.49,2.22v5.98h-1.54v-11.38h1.47v3.12l-.24-.58c.36-.82.94-1.47,1.73-1.94.79-.47,1.74-.7,2.84-.7Z"/>
      <path class="st3" d="M129.93,840.86c-.85,0-1.59-.14-2.22-.42-.63-.28-1.11-.67-1.44-1.17-.33-.5-.5-1.07-.5-1.72,0-.59.14-1.13.42-1.61.28-.48.74-.87,1.39-1.17s1.51-.44,2.59-.44h3.92v1.15h-3.88c-1.1,0-1.86.2-2.29.58-.43.39-.64.87-.64,1.45,0,.65.25,1.17.76,1.56.51.39,1.21.58,2.12.58s1.61-.2,2.24-.6c.63-.4,1.09-.97,1.38-1.72l.35,1.06c-.29.75-.79,1.35-1.51,1.8-.71.45-1.61.67-2.7.67ZM133.85,840.76v-2.51l-.06-.41v-4.2c0-.97-.27-1.71-.81-2.23-.54-.52-1.35-.78-2.42-.78-.74,0-1.44.12-2.1.37-.67.25-1.23.57-1.69.97l-.69-1.15c.58-.49,1.27-.87,2.08-1.14.81-.27,1.66-.4,2.56-.4,1.47,0,2.61.37,3.41,1.09.8.73,1.2,1.84,1.2,3.33v7.06h-1.47Z"/>
      <path class="st3" d="M145.58,830.66v-1.28h7.04v1.28h-7.04ZM150.95,840.86c-1.07,0-1.89-.29-2.47-.87-.58-.58-.87-1.39-.87-2.45v-10.68h1.54v10.6c0,.67.17,1.18.51,1.54.34.36.83.54,1.46.54.68,0,1.24-.19,1.69-.58l.54,1.11c-.3.27-.67.48-1.09.61-.43.13-.86.2-1.31.2Z"/>
      <path class="st3" d="M157.23,840.76v-11.38h1.47v3.1l-.15-.54c.32-.87.85-1.53,1.6-1.98s1.68-.68,2.8-.68v1.5c-.06,0-.12,0-.17-.01s-.12-.01-.17-.01c-1.2,0-2.14.36-2.82,1.09s-1.02,1.77-1.02,3.11v5.81h-1.54Z"/>
      <path class="st3" d="M169.19,840.86c-.85,0-1.59-.14-2.22-.42-.63-.28-1.11-.67-1.44-1.17-.33-.5-.5-1.07-.5-1.72,0-.59.14-1.13.42-1.61.28-.48.74-.87,1.39-1.17.64-.3,1.51-.44,2.59-.44h3.92v1.15h-3.88c-1.1,0-1.86.2-2.29.58s-.64.87-.64,1.45c0,.65.25,1.17.76,1.56.51.39,1.21.58,2.12.58s1.61-.2,2.24-.6c.63-.4,1.09-.97,1.38-1.72l.35,1.06c-.29.75-.79,1.35-1.51,1.8-.71.45-1.61.67-2.7.67ZM173.12,840.76v-2.51l-.07-.41v-4.2c0-.97-.27-1.71-.81-2.23-.54-.52-1.35-.78-2.42-.78-.74,0-1.44.12-2.1.37-.67.25-1.23.57-1.69.97l-.69-1.15c.58-.49,1.27-.87,2.08-1.14.81-.27,1.66-.4,2.56-.4,1.47,0,2.61.37,3.41,1.09.8.73,1.2,1.84,1.2,3.33v7.06h-1.47Z"/>
      <path class="st3" d="M184.38,840.86c-1.08,0-2.05-.25-2.91-.74-.86-.49-1.54-1.17-2.03-2.05-.49-.87-.74-1.88-.74-3.02s.25-2.17.74-3.03c.49-.87,1.17-1.54,2.03-2.03.86-.48,1.83-.73,2.91-.73,1,0,1.89.22,2.68.67.79.45,1.42,1.1,1.89,1.96.47.86.7,1.91.7,3.15s-.23,2.28-.69,3.14c-.46.87-1.09,1.53-1.87,1.98-.79.46-1.69.68-2.7.68ZM184.49,839.5c.81,0,1.54-.18,2.18-.55s1.15-.89,1.52-1.56c.37-.67.55-1.45.55-2.33s-.18-1.67-.55-2.34c-.37-.66-.87-1.18-1.52-1.55-.64-.37-1.37-.55-2.18-.55s-1.51.18-2.15.55c-.64.37-1.14.89-1.52,1.55-.38.67-.56,1.44-.56,2.34s.19,1.66.56,2.33c.38.67.88,1.19,1.52,1.56s1.35.55,2.15.55ZM188.78,840.76v-3.42l.15-2.3-.22-2.3v-8.06h1.54v16.08h-1.47Z"/>
      <path class="st3" d="M196.41,826.87c-.32,0-.58-.11-.8-.33-.22-.22-.33-.48-.33-.78s.11-.56.33-.77c.22-.21.48-.31.8-.31s.59.1.8.3c.22.2.33.45.33.76s-.1.58-.31.8c-.21.22-.48.33-.81.33ZM195.63,840.76v-11.38h1.54v11.38h-1.54Z"/>
      <path class="st3" d="M207.27,840.86c-1.13,0-2.13-.25-3.02-.75-.89-.5-1.59-1.18-2.09-2.06-.51-.87-.76-1.87-.76-3s.25-2.14.76-3.01c.51-.87,1.2-1.55,2.09-2.04.89-.49,1.9-.74,3.02-.74.97,0,1.84.19,2.62.56s1.39.94,1.84,1.69l-1.15.78c-.39-.58-.87-1-1.45-1.28s-1.21-.41-1.88-.41c-.81,0-1.54.18-2.19.55-.65.37-1.16.89-1.54,1.55-.38.67-.56,1.44-.56,2.34s.19,1.68.56,2.34c.38.66.89,1.18,1.54,1.55.65.37,1.38.55,2.19.55.68,0,1.31-.14,1.88-.41.58-.27,1.06-.69,1.45-1.26l1.15.78c-.45.74-1.06,1.3-1.84,1.68s-1.65.57-2.62.57Z"/>
      <path class="st3" d="M216.43,826.87c-.32,0-.58-.11-.8-.33-.22-.22-.33-.48-.33-.78s.11-.56.33-.77c.22-.21.48-.31.8-.31s.59.1.8.3c.22.2.33.45.33.76s-.1.58-.31.8c-.21.22-.48.33-.81.33ZM215.65,840.76v-11.38h1.54v11.38h-1.54Z"/>
      <path class="st3" d="M227.2,840.86c-1.11,0-2.1-.25-2.97-.75-.87-.5-1.55-1.19-2.06-2.07-.51-.88-.76-1.88-.76-2.99s.25-2.14.76-3.01c.51-.87,1.19-1.55,2.06-2.04.87-.49,1.86-.74,2.97-.74s2.13.25,3,.75c.87.5,1.56,1.18,2.06,2.04.5.86.75,1.86.75,3s-.25,2.13-.75,3c-.5.88-1.19,1.56-2.07,2.06-.88.5-1.88.75-2.99.75ZM227.2,839.5c.82,0,1.55-.18,2.19-.55s1.14-.89,1.51-1.56c.37-.67.55-1.45.55-2.33s-.18-1.67-.55-2.34c-.37-.66-.87-1.18-1.51-1.55-.64-.37-1.36-.55-2.17-.55s-1.53.18-2.17.55c-.64.37-1.14.89-1.52,1.55-.38.67-.56,1.44-.56,2.34s.19,1.66.56,2.33c.38.67.88,1.19,1.51,1.56.63.37,1.35.55,2.16.55Z"/>
      <path class="st3" d="M243.04,829.27c.92,0,1.74.18,2.44.53.7.35,1.25.89,1.65,1.61.4.72.6,1.63.6,2.73v6.61h-1.54v-6.46c0-1.2-.3-2.11-.9-2.72s-1.44-.92-2.52-.92c-.81,0-1.51.16-2.11.49s-1.06.79-1.39,1.41c-.32.61-.49,1.35-.49,2.22v5.98h-1.54v-11.38h1.47v3.12l-.24-.58c.36-.82.94-1.47,1.73-1.94.79-.47,1.74-.7,2.84-.7Z"/>
      <path class="st3" d="M256.17,840.86c-.85,0-1.59-.14-2.22-.42-.63-.28-1.11-.67-1.44-1.17-.33-.5-.5-1.07-.5-1.72,0-.59.14-1.13.42-1.61.28-.48.74-.87,1.39-1.17s1.51-.44,2.59-.44h3.92v1.15h-3.88c-1.1,0-1.86.2-2.29.58s-.64.87-.64,1.45c0,.65.25,1.17.76,1.56.51.39,1.21.58,2.12.58s1.61-.2,2.24-.6c.63-.4,1.09-.97,1.38-1.72l.35,1.06c-.29.75-.79,1.35-1.51,1.8-.71.45-1.61.67-2.7.67ZM260.09,840.76v-2.51l-.07-.41v-4.2c0-.97-.27-1.71-.81-2.23-.54-.52-1.35-.78-2.42-.78-.74,0-1.44.12-2.1.37-.67.25-1.23.57-1.69.97l-.69-1.15c.58-.49,1.27-.87,2.08-1.14.81-.27,1.66-.4,2.56-.4,1.47,0,2.61.37,3.41,1.09.8.73,1.2,1.84,1.2,3.33v7.06h-1.47Z"/>
      <path class="st3" d="M266.83,840.76v-16.08h1.54v16.08h-1.54Z"/>
      <path class="st3" d="M285.23,840.86c-1.13,0-2.13-.25-3.02-.75-.89-.5-1.59-1.18-2.09-2.06-.51-.87-.76-1.87-.76-3s.25-2.14.76-3.01c.51-.87,1.2-1.55,2.09-2.04.89-.49,1.9-.74,3.02-.74.97,0,1.84.19,2.62.56s1.39.94,1.84,1.69l-1.15.78c-.39-.58-.87-1-1.45-1.28s-1.21-.41-1.88-.41c-.81,0-1.54.18-2.19.55-.65.37-1.16.89-1.54,1.55-.38.67-.56,1.44-.56,2.34s.19,1.68.56,2.34c.38.66.89,1.18,1.54,1.55.65.37,1.38.55,2.19.55.68,0,1.31-.14,1.88-.41.58-.27,1.06-.69,1.45-1.26l1.15.78c-.45.74-1.06,1.3-1.84,1.68s-1.65.57-2.62.57Z"/>
      <path class="st3" d="M299.42,829.27c.92,0,1.74.18,2.44.53.7.35,1.25.89,1.65,1.61.4.72.6,1.63.6,2.73v6.61h-1.54v-6.46c0-1.2-.3-2.11-.9-2.72s-1.44-.92-2.52-.92c-.81,0-1.51.16-2.11.49-.6.33-1.06.79-1.39,1.41-.32.61-.49,1.35-.49,2.22v5.98h-1.54v-16.08h1.54v7.82l-.3-.58c.36-.82.94-1.47,1.73-1.94.79-.47,1.74-.7,2.84-.7Z"/>
      <path class="st3" d="M310.13,826.87c-.32,0-.58-.11-.8-.33-.22-.22-.33-.48-.33-.78s.11-.56.33-.77c.22-.21.48-.31.8-.31s.59.1.8.3c.22.2.33.45.33.76s-.1.58-.31.8c-.21.22-.48.33-.81.33ZM309.35,840.76v-11.38h1.54v11.38h-1.54Z"/>
      <path class="st3" d="M322.07,829.27c.92,0,1.74.18,2.44.53.7.35,1.25.89,1.65,1.61.4.72.6,1.63.6,2.73v6.61h-1.54v-6.46c0-1.2-.3-2.11-.9-2.72s-1.44-.92-2.52-.92c-.81,0-1.51.16-2.11.49-.6.33-1.06.79-1.39,1.41-.32.61-.49,1.35-.49,2.22v5.98h-1.54v-11.38h1.47v3.12l-.24-.58c.36-.82.94-1.47,1.73-1.94.79-.47,1.74-.7,2.84-.7Z"/>
      <path class="st3" d="M335.2,840.86c-.85,0-1.59-.14-2.22-.42-.63-.28-1.11-.67-1.44-1.17-.33-.5-.5-1.07-.5-1.72,0-.59.14-1.13.42-1.61.28-.48.74-.87,1.39-1.17.64-.3,1.51-.44,2.59-.44h3.92v1.15h-3.88c-1.1,0-1.86.2-2.29.58s-.64.87-.64,1.45c0,.65.25,1.17.76,1.56.51.39,1.21.58,2.12.58s1.61-.2,2.24-.6c.63-.4,1.09-.97,1.38-1.72l.35,1.06c-.29.75-.79,1.35-1.51,1.8-.71.45-1.61.67-2.7.67ZM339.12,840.76v-2.51l-.07-.41v-4.2c0-.97-.27-1.71-.81-2.23-.54-.52-1.35-.78-2.42-.78-.74,0-1.44.12-2.1.37-.67.25-1.23.57-1.69.97l-.69-1.15c.58-.49,1.27-.87,2.08-1.14.81-.27,1.66-.4,2.56-.4,1.47,0,2.61.37,3.41,1.09.8.73,1.2,1.84,1.2,3.33v7.06h-1.47Z"/>
    </g>
    <g>
      <path class="st2" d="M250.72,682.01c-.02-.48,0-.97.01-1.46,0-.26,0-.51.03-.75-.04-.09-.03-.19-.03-.29,0-1.08,0-2.17,0-3.25,0-.07,0-.15,0-.23,0-.34,0-.68.01-1.03-.03-.08,0-.19,0-.27-.13-1.84-.31-3.68-.62-5.5-1.6-9.51-5.61-17.88-11.97-25.1-7.08-8.04-15.89-13.16-26.41-15.31-.66-.13-1.32-.34-2.01-.28,1.95.71,3.85,1.54,5.69,2.47,5.33,2.7,9.41,6.63,11.78,12.18,2.13,5,2.53,10.19,1.46,15.49-1.54,7.63-5.7,13.37-12.6,17.06-3.96,2.12-8.24,3.05-12.71,3.17-3.07.09-6.12.24-9.1,1.07-12.05,3.34-19.76,15.87-17.41,28.3,1.23,6.53,4.6,11.73,9.94,15.64,2.33,1.7,4.82,3.16,7.66,3.81,5.76,1.33,11.56,1.46,17.36.24,8.52-1.79,15.95-5.69,22.35-11.57,9.44-8.68,14.77-19.47,16.36-32.16.08-.66.07-1.33.19-1.98,0-.08,0-.17.01-.25ZM202.6,712.44c-4.37-.01-7.98-3.6-7.96-7.92.02-4.39,3.56-7.92,7.94-7.92,4.41,0,8.01,3.63,7.99,8.04-.02,4.34-3.57,7.82-7.97,7.81Z"/>
      <path class="st2" d="M192.39,628.83c-1.25.44-2.47.86-3.68,1.31-9.58,3.57-17.3,9.52-22.95,18.07-3.88,5.87-6.45,12.28-7.76,19.19-1.09,5.73-1.45,11.49-.93,17.3.73,8.15,3.29,15.7,7.52,22.68,6.01,9.93,14.48,16.79,25.59,20.31,3.7,1.17,7.5,1.8,11.36,2.1.22.02.46-.04.66.12,0,.18-.13.13-.22.13-6.55.25-13.01-.3-19.3-2.23-3.75-1.15-7.28-2.78-10.57-4.94-.19-.13-.39-.25-.56-.41-4.32-3.93-8.35-8.09-11.2-13.26-3.75-6.8-6.31-14-7.23-21.72-1.27-10.65-.06-21.01,4.24-30.88,4.48-10.3,11.56-18.27,21.64-23.42,4.04-2.07,8.32-3.45,12.75-4.4.19-.04.4-.11.63.04Z"/>
      <path class="st2" d="M173.53,727.16c-4.98-.62-9.93-.62-14.88-.16,5.76.32,11.39,1.34,16.99,3.07-1.4,1.41-2.92,2.51-4.6,3.39-4.51,2.36-9.32,2.99-14.31,2.34-6.05-.79-11.42-3.23-16.22-6.98-.38-.3-.44-.46-.07-.83,4.42-4.44,9.51-7.71,15.74-8.94,4.47-.89,8.74-.37,12.6,2.24,2.07,1.39,3.54,3.32,4.64,5.53.04.09.06.19.1.35Z"/>
      <path class="st2" d="M152.08,693.78c-4.27-2.67-8.65-4.91-13.27-6.69,4.82,2.84,9.25,6.19,13.6,9.83-.95.42-1.89.68-2.83.89-6.85,1.53-12.78-.47-18.03-4.84-4.23-3.52-7.24-7.96-9.37-13-.12-.29-.29-.56.23-.68,5.33-1.24,10.69-1.77,16.1-.63,3.35.71,6.46,1.98,9,4.37,2.5,2.36,3.79,5.34,4.31,8.69.1.66.16,1.32.25,2.07Z"/>
      <path class="st2" d="M146.46,649.24c2.55,3.98,4.88,8.07,6.72,12.43.3.7.3.71-.42.63-6.1-.63-10.57-3.71-13.56-9.02-2.18-3.87-3.2-8.04-3.43-12.44-.07-1.41-.03-2.81.09-4.21.02-.27.04-.49.43-.4,5.63,1.21,10.84,3.35,15.05,7.4,4.17,4.01,5.3,8.94,3.95,14.5-.14.58-.27,1.17-.56,1.77-.66-.97-1.29-1.9-1.94-2.82-1.25-1.76-2.51-3.5-3.94-5.13-.8-.9-1.49-1.91-2.32-2.79-.05-.11-.13-.13-.23-.07.05.05.1.1.15.16Z"/>
      <path class="st2" d="M159.45,677.69c2.85-3.7,6.07-6.9,9.58-9.85-3.52,1.99-6.68,4.46-9.83,7.12-.24-2.01-.07-3.89.52-5.72,1.23-3.86,3.91-6.43,7.47-8.15,4.27-2.07,8.82-2.57,13.49-2.29.77.05,1.55.14,2.32.2.31.02.4.13.31.44-2.07,6.96-5.76,12.75-12.15,16.51-3.6,2.12-8.01,2.71-11.7,1.75Z"/>
      <path class="st2" d="M194.74,653.28c.02-4.4,3.52-7.88,7.9-7.86,4.32.02,7.77,3.55,7.76,7.93-.01,4.3-3.53,7.8-7.84,7.78-4.36-.02-7.84-3.51-7.82-7.86Z"/>
      <path class="st2" d="M163.43,642c.4-3.84.68-7.61.72-11.39-.81,4.26-1.53,8.54-2.47,12.9-1.36-1.42-2.21-3-2.8-4.71-1.34-3.85-.82-7.62.63-11.31,1.37-3.51,3.55-6.45,6.41-8.9.4-.35.61-.43.89.14,2.48,4.92,3.53,10.04,2.16,15.48-.8,3.2-2.72,5.68-5.29,7.69-.05.04-.11.05-.25.11Z"/>
    </g>
  </g>
</svg>